<svg xmlns="http://www.w3.org/2000/svg" viewBox="0 0 291.53 55.89"><defs><style>.cls-1{fill:#420704;}</style></defs><title>Asset 4</title><g id="Layer_2" data-name="Layer 2"><g id="Layer_1-2" data-name="Layer 1"><path class="cls-1" d="M17.57,1.51c16.51,0,25,8.39,25,21,0,13.82-10.91,21-27.25,21H0V42.35c1.46,0,2.29-.88,2.29-2.79V5.42c0-1.91-.83-2.8-2.29-2.8V1.51Zm15.61,21c0-12.37-5.76-20.65-16.95-20.65H10.86V39c0,2.46.39,4.14,4,4.14C25.85,43.14,33.18,36.14,33.18,22.49Z"/><path class="cls-1" d="M65.21,43.75a6.43,6.43,0,0,1-6.57-4.68c-3.26,3.57-5.85,5-7.87,5-3.92,0-6.49-2.4-6.49-6,0-4.62,2.69-6,14-9.54V21.2c0-3.8-.68-5.48-1.74-5.48-2.52,0-4.2,3.3-4.2,5.15,0,1.39,1.12,2.63,1.12,3.75a3.47,3.47,0,0,1-3.41,3.19,4.25,4.25,0,0,1-4.53-4.48c0-3,4.64-8.39,11.64-8.39,5,0,8.33,2.74,8.33,8.89.06-.11.06,12.87.06,12.87A2.34,2.34,0,0,0,68.23,39a3.27,3.27,0,0,0,3.3-2.86l.56.23C71.31,40.79,68.56,43.75,65.21,43.75Zm-13.6-6.49a2.88,2.88,0,0,0,3,3.14,5.78,5.78,0,0,0,4-1.76,9.17,9.17,0,0,1-.2-1.94V28.91C52.9,30.64,51.61,31.83,51.61,37.26Z"/><path class="cls-1" d="M83.06,42.35v1.12H73.44V42.35c.7,0,1.18-.15,1.18-.84V20.75c0-1.71-.44-2.86-1.18-3.35v-.67c1.45-.4,3.36-.9,4.81-1.29v.05h3.64v26C81.89,42.2,82.36,42.35,83.06,42.35ZM73.67,4.87V4.3A4.31,4.31,0,0,0,78,0h.57a4.3,4.3,0,0,0,4.3,4.3v.57a4.29,4.29,0,0,0-4.3,4.3H78A4.3,4.3,0,0,0,73.67,4.87Z"/><path class="cls-1" d="M120.28,2.62c-1.39,0-2.19.77-2.29,2.51,0,6.84.05,21.67.05,29.05,0,18.13-9,21.6-15.56,21.6-5.93,0-9.9-1.45-9.9-3.63a3.63,3.63,0,0,1,3.86-3.81c4.25,0,2.18,6.83,6.44,6.83,2.74,0,6.54-.79,6.54-4.87,0-11.73,0-35.92,0-45.13-.08-1.76-.88-2.55-2.29-2.55V1.51h13.1Z"/><path class="cls-1" d="M132,42.35v1.12H122.4V42.35c.7,0,1.17-.15,1.17-.84V20.75c0-1.71-.44-2.86-1.17-3.35v-.67c1.45-.4,3.36-.9,4.81-1.29v.05h3.64v26C130.85,42.2,131.32,42.35,132,42.35ZM122.63,4.87V4.3A4.3,4.3,0,0,0,126.92,0h.58a4.3,4.3,0,0,0,4.3,4.3v.57a4.29,4.29,0,0,0-4.3,4.3h-.58A4.29,4.29,0,0,0,122.63,4.87Z"/><path class="cls-1" d="M134.52,16.73c1.45-.4,3.36-.9,4.81-1.29v.06H143V21c2.12-3.64,6-6.1,9.73-6.1,5.77,0,8,4.81,8,12v14.6c0,.69.47.84,1.17.84v1.12h-9.62V42.35c.7,0,1.17-.15,1.17-.84V26.91c0-4.31-1.12-7.22-4-7.22-3.25,0-5.82.78-6.49,1.9V41.51c0,.69.47.84,1.17.84v1.12h-9.62V42.35c.7,0,1.17-.15,1.17-.84V20.75c0-1.71-.44-2.86-1.17-3.35ZM170,42.35c.71,0,1.18-.15,1.18-.84V26.91c0-4.31-1.12-7.22-4-7.22-3.53,0-6.33.78-7,1.9V21a12.34,12.34,0,0,1,10.24-6.1c5.77,0,8,4.82,8,12v14.6c0,.69.48.84,1.18.84v1.12H170Z"/><path class="cls-1" d="M189.4,27.86c0,8.51,2.69,14.21,6.77,14.21,5.32,0,9.74-2.46,11.08-6.15l.17.06c-1.73,4.81-6.66,8.05-12.2,8.05-8.11,0-13.48-5.31-13.48-13.26,0-11.41,5.93-15.83,14.83-15.83,6.26,0,10.91,2.74,12.14,9.79H189.54C189.45,25.69,189.4,26.73,189.4,27.86Zm6.94-12.37c-3.55,0-6.11,2.56-6.77,8.9l11.07,0C199.47,18,197.93,15.49,196.34,15.49Z"/><path class="cls-1" d="M210.54,16.73c1.45-.4,3.35-.9,4.81-1.29v.06H219v5.81c2.18-3.8,6.1-6.37,9.73-6.37,5.26,0,8,4.3,8,10.8V41.52c0,.68.47.83,1.17.83v1.12h-9.62V42.35c.7,0,1.17-.15,1.17-.84V25.74c0-4.43-1.06-7.34-3.19-7.34a8.6,8.6,0,0,0-7.27,4V41.52c0,.68.47.83,1.17.83v1.12h-9.62V42.35c.7,0,1.17-.15,1.17-.84V20.75c0-1.71-.44-2.86-1.17-3.35v-.67Z"/><path class="cls-1" d="M247.72,27.86c0,8.51,2.69,14.21,6.77,14.21,5.32,0,9.74-2.46,11.08-6.15l.17.06C264,40.79,259.08,44,253.54,44c-8.11,0-13.48-5.31-13.48-13.26,0-11.41,5.93-15.83,14.83-15.83,6.26,0,10.91,2.74,12.14,9.79H247.86C247.77,25.69,247.72,26.73,247.72,27.86Zm6.94-12.37c-3.55,0-6.11,2.56-6.77,8.9l11.07,0C257.79,18,256.25,15.49,254.66,15.49Z"/><path class="cls-1" d="M290.47,37.93h1.06c-.28,2.58-.45,4.26-.45,4.26L291,43.47H268.2V41.74l14.11-24.16-6.32.26c-2.64.25-5.05,1.31-6.23,2.75l-.44.45h-1.07c.73-2.58,1.18-4.26,1.18-4.26s.05-.19.08-.31l-.08.31.33-1.26.51,0H291v1.73L277.05,41.41l7.12-.27c2.67-.23,5-1.3,6-2.76l.34-.45Zm-6,13.09v.57a4.3,4.3,0,0,0-4.3,4.3h-.57a4.3,4.3,0,0,0-4.3-4.3V51a4.31,4.31,0,0,0,4.3-4.3h.57A4.31,4.31,0,0,0,284.45,51Z"/></g></g></svg>