<svg xmlns="http://www.w3.org/2000/svg" viewBox="0 0 699.69 493.23"><defs><style>.cls-1{isolation:isolate;}.cls-2{fill:#bcd372;}.cls-3{fill:#f7fbfc;}.cls-11,.cls-12,.cls-13,.cls-17,.cls-3,.cls-4,.cls-5,.cls-9{stroke:#1d293a;stroke-linecap:round;stroke-linejoin:round;stroke-width:2px;}.cls-4,.cls-6{fill:#57cbff;}.cls-10,.cls-5{fill:#2273aa;}.cls-7{fill:#bcbec0;}.cls-15,.cls-7{mix-blend-mode:multiply;}.cls-8{fill:#1d293a;}.cls-17,.cls-9{fill:none;}.cls-11,.cls-14{fill:#e74e4e;}.cls-12{fill:#d87178;}.cls-13,.cls-16{fill:#f2ca52;}.cls-15{fill:#c6c6c6;}.cls-17{stroke-dasharray:15 8;}</style></defs><title>Berlin</title><g class="cls-1"><g id="Layer_2" data-name="Layer 2"><g id="objects"><path class="cls-2" d="M646.48,473.23a20,20,0,0,1-20,20H60.87a20,20,0,0,1-20-20V460.76H646.48Z"/><path id="_Cloud_Back_" data-name="&lt;Cloud Back&gt;" class="cls-3" d="M18.89,299.37a33.42,33.42,0,0,1,30.64-24.66,44.65,44.65,0,0,1,83.41,22.18c0,1.27-.08,2.52-.19,3.77a21.25,21.25,0,1,1,8.09,40.9H24.57v-.12a20.36,20.36,0,0,1-2.22.12,21.24,21.24,0,0,1-3.46-42.19Z"/><polygon class="cls-4" points="334.82 173.88 101.45 173.88 106.21 183.93 334.82 183.93 563.44 183.93 568.2 173.88 334.82 173.88"/><rect class="cls-5" x="114.42" y="183.93" width="445.81" height="23.89"/><rect class="cls-4" x="105.85" y="222.24" width="467.37" height="35.68"/><rect class="cls-5" x="116.75" y="230.09" width="445.81" height="15.27"/><rect class="cls-4" x="158.07" y="200.7" width="360.49" height="7.12"/><rect class="cls-3" x="186.44" y="193.59" width="303.76" height="7.12"/><rect class="cls-4" x="206.8" y="186.47" width="263.02" height="7.12"/><rect class="cls-3" x="229.52" y="179.36" width="217.59" height="7.12"/><path class="cls-6" d="M135.61,344.29c-.45-17.68-1.35-42.12-2-58.06-.38-9.66-.65-16.2-.65-16.2H108.72s-.27,6.54-.64,16.2c-.62,15.94-1.52,40.38-2,58.06-.17,6.62-.27,12.29-.27,16.21h0c0,14.46,1.39,52.68,2.24,74.54.37,9.51.63,15.93.63,15.93H133s.27-6.42.64-15.93c.84-21.86,2.24-60.08,2.24-74.54h0C135.88,356.58,135.77,350.91,135.61,344.29Z"/><path class="cls-7" d="M120.86,270H108.72s-.27,6.54-.64,16.2h25.57c-.38-9.66-.65-16.2-.65-16.2Z"/><path class="cls-7" d="M135.88,360.5c0-3.92-.11-9.59-.27-16.21H106.12c-.17,6.62-.27,12.29-.27,16.21h30Z"/><path class="cls-7" d="M108.72,451H133s.27-6.42.64-15.93H108.09C108.46,444.55,108.72,451,108.72,451Z"/><path class="cls-8" d="M133.89,451.9H107.83l0-.89c0-.7-2.87-70-2.87-90.51s2.85-89.81,2.87-90.51l0-.89h26.06l0,.89c0,.7,2.87,70,2.87,90.51S134,450.31,133.93,451Zm-24.28-1.85h22.5c.34-8.2,2.84-70.32,2.84-89.55s-2.5-81.35-2.84-89.55h-22.5c-.33,8.2-2.83,70.32-2.83,89.55S109.28,441.85,109.61,450.05Z"/><line class="cls-9" x1="112.64" y1="270.03" x2="112.64" y2="450.97"/><line class="cls-9" x1="120.86" y1="270.03" x2="120.86" y2="450.97"/><line class="cls-9" x1="129.09" y1="270.03" x2="129.09" y2="450.97"/><path class="cls-10" d="M136.79,266.11c0,2.16-2.12,3.92-4.7,3.92H109.64c-2.59,0-4.7-1.76-4.7-3.92s2.11-3.91,4.7-3.91h22.45C134.67,262.2,136.79,264,136.79,266.11Z"/><path class="cls-9" d="M136.79,266.11c0,2.16-2.12,3.92-4.7,3.92H109.64c-2.59,0-4.7-1.76-4.7-3.92s2.11-3.91,4.7-3.91h22.45C134.67,262.2,136.79,264,136.79,266.11Z"/><rect class="cls-10" x="100.95" y="450.97" width="39.82" height="9.79" rx="4.7"/><rect class="cls-9" x="100.95" y="450.97" width="39.82" height="9.79" rx="4.7"/><path class="cls-10" d="M136.79,447.06c0,2.15-2.12,3.91-4.7,3.91H109.64c-2.59,0-4.7-1.76-4.7-3.91s2.11-3.92,4.7-3.92h22.45C134.67,443.14,136.79,444.9,136.79,447.06Z"/><path class="cls-9" d="M136.79,447.06c0,2.15-2.12,3.91-4.7,3.91H109.64c-2.59,0-4.7-1.76-4.7-3.91s2.11-3.92,4.7-3.92h22.45C134.67,443.14,136.79,444.9,136.79,447.06Z"/><path class="cls-6" d="M572.47,344.29c-.44-17.68-1.34-42.12-2-58.06-.37-9.66-.64-16.2-.64-16.2H545.58s-.26,6.54-.64,16.2c-.61,15.94-1.51,40.38-2,58.06-.16,6.62-.27,12.29-.27,16.21h0c0,14.46,1.4,52.68,2.24,74.54.37,9.51.63,15.93.63,15.93h24.29s.26-6.42.63-15.93c.85-21.86,2.24-60.08,2.24-74.54h0C572.74,356.58,572.64,350.91,572.47,344.29Z"/><path class="cls-7" d="M557.73,270H545.58s-.26,6.54-.64,16.2h25.57c-.37-9.66-.64-16.2-.64-16.2Z"/><path class="cls-7" d="M572.74,360.5c0-3.92-.1-9.59-.27-16.21H543c-.16,6.62-.27,12.29-.27,16.21h30Z"/><path class="cls-7" d="M545.58,451h24.29s.26-6.42.63-15.93H545C545.32,444.55,545.58,451,545.58,451Z"/><path class="cls-8" d="M570.76,451.9H544.69l0-.89c0-.7-2.87-70-2.87-90.51s2.84-89.81,2.87-90.51l0-.89h26.07l0,.89c0,.7,2.88,70,2.88,90.51s-2.85,89.81-2.88,90.51Zm-24.28-1.85H569c.33-8.2,2.83-70.32,2.83-89.55S569.31,279.15,569,271h-22.5c-.34,8.2-2.84,70.32-2.84,89.55S546.14,441.85,546.48,450.05Z"/><line class="cls-9" x1="549.5" y1="270.03" x2="549.5" y2="450.97"/><line class="cls-9" x1="557.73" y1="270.03" x2="557.73" y2="450.97"/><line class="cls-9" x1="565.95" y1="270.03" x2="565.95" y2="450.97"/><path class="cls-10" d="M573.65,266.11c0,2.16-2.11,3.92-4.7,3.92H546.5c-2.58,0-4.7-1.76-4.7-3.92s2.12-3.91,4.7-3.91H569C571.54,262.2,573.65,264,573.65,266.11Z"/><path class="cls-9" d="M573.65,266.11c0,2.16-2.11,3.92-4.7,3.92H546.5c-2.58,0-4.7-1.76-4.7-3.92s2.12-3.91,4.7-3.91H569C571.54,262.2,573.65,264,573.65,266.11Z"/><rect class="cls-10" x="537.81" y="450.97" width="39.83" height="9.79" rx="4.7"/><rect class="cls-9" x="537.81" y="450.97" width="39.83" height="9.79" rx="4.7"/><path class="cls-10" d="M573.65,447.06c0,2.15-2.11,3.91-4.7,3.91H546.5c-2.58,0-4.7-1.76-4.7-3.91s2.12-3.92,4.7-3.92H569C571.54,443.14,573.65,444.9,573.65,447.06Z"/><path class="cls-9" d="M573.65,447.06c0,2.15-2.11,3.91-4.7,3.91H546.5c-2.58,0-4.7-1.76-4.7-3.91s2.12-3.92,4.7-3.92H569C571.54,443.14,573.65,444.9,573.65,447.06Z"/><path class="cls-6" d="M485.1,344.29c-.45-17.68-1.35-42.12-2-58.06-.38-9.66-.65-16.2-.65-16.2H458.21s-.27,6.54-.64,16.2c-.62,15.94-1.52,40.38-2,58.06-.17,6.62-.27,12.29-.27,16.21h0c0,14.46,1.39,52.68,2.24,74.54.37,9.51.63,15.93.63,15.93h24.28s.27-6.42.64-15.93c.84-21.86,2.24-60.08,2.24-74.54h0C485.37,356.58,485.26,350.91,485.1,344.29Z"/><path class="cls-7" d="M470.35,270H458.21s-.27,6.54-.64,16.2h25.57c-.38-9.66-.65-16.2-.65-16.2Z"/><path class="cls-7" d="M485.37,360.5c0-3.92-.11-9.59-.27-16.21H455.61c-.17,6.62-.27,12.29-.27,16.21h30Z"/><path class="cls-7" d="M458.21,451h24.28s.27-6.42.64-15.93H457.58C458,444.55,458.21,451,458.21,451Z"/><path class="cls-8" d="M483.39,451.9H457.32l0-.89c0-.7-2.88-70-2.88-90.51s2.85-89.81,2.88-90.51l0-.89h26.07l0,.89c0,.7,2.87,70,2.87,90.51s-2.84,89.81-2.87,90.51Zm-24.29-1.85h22.5c.34-8.2,2.84-70.32,2.84-89.55s-2.5-81.35-2.84-89.55H459.1c-.33,8.2-2.83,70.32-2.83,89.55S458.77,441.85,459.1,450.05Z"/><line class="cls-9" x1="462.13" y1="270.03" x2="462.13" y2="450.97"/><line class="cls-9" x1="470.35" y1="270.03" x2="470.35" y2="450.97"/><line class="cls-9" x1="478.58" y1="270.03" x2="478.58" y2="450.97"/><path class="cls-10" d="M486.28,266.11c0,2.16-2.12,3.92-4.7,3.92H459.13c-2.59,0-4.7-1.76-4.7-3.92s2.11-3.91,4.7-3.91h22.45C484.16,262.2,486.28,264,486.28,266.11Z"/><path class="cls-9" d="M486.28,266.11c0,2.16-2.12,3.92-4.7,3.92H459.13c-2.59,0-4.7-1.76-4.7-3.92s2.11-3.91,4.7-3.91h22.45C484.16,262.2,486.28,264,486.28,266.11Z"/><rect class="cls-10" x="450.44" y="450.97" width="39.83" height="9.79" rx="4.7"/><rect class="cls-9" x="450.44" y="450.97" width="39.83" height="9.79" rx="4.7"/><path class="cls-10" d="M486.28,447.06c0,2.15-2.12,3.91-4.7,3.91H459.13c-2.59,0-4.7-1.76-4.7-3.91s2.11-3.92,4.7-3.92h22.45C484.16,443.14,486.28,444.9,486.28,447.06Z"/><path class="cls-9" d="M486.28,447.06c0,2.15-2.12,3.91-4.7,3.91H459.13c-2.59,0-4.7-1.76-4.7-3.91s2.11-3.92,4.7-3.92h22.45C484.16,443.14,486.28,444.9,486.28,447.06Z"/><path class="cls-6" d="M397.73,343.31c-.45-17.68-1.35-42.12-2-58.06-.37-9.66-.64-16.2-.64-16.2H370.84s-.27,6.54-.64,16.2c-.62,15.94-1.52,40.38-2,58.06-.17,6.62-.27,12.29-.27,16.21h0c0,14.46,1.39,52.68,2.24,74.54.37,9.51.63,15.93.63,15.93h24.28s.27-6.42.63-15.93C396.6,412.2,398,374,398,359.52h0C398,355.6,397.89,349.93,397.73,343.31Z"/><path class="cls-7" d="M383,269.05H370.84s-.27,6.54-.64,16.2h25.56c-.37-9.66-.64-16.2-.64-16.2Z"/><path class="cls-7" d="M398,359.52c0-3.92-.1-9.59-.26-16.21H368.24c-.17,6.62-.27,12.29-.27,16.21h30Z"/><path class="cls-7" d="M370.84,450h24.28s.27-6.42.63-15.93H370.21C370.58,443.57,370.84,450,370.84,450Z"/><path class="cls-8" d="M396,450.92H370l0-.89c0-.7-2.87-70-2.87-90.51s2.84-89.81,2.87-90.51l0-.89H396l0,.89c0,.7,2.87,70,2.87,90.51s-2.84,89.81-2.87,90.51Zm-24.28-1.85h22.5c.34-8.2,2.84-70.32,2.84-89.55s-2.5-81.35-2.84-89.55h-22.5c-.33,8.2-2.83,70.32-2.83,89.55S371.4,440.87,371.73,449.07Z"/><line class="cls-9" x1="374.76" y1="269.05" x2="374.76" y2="449.99"/><line class="cls-9" x1="382.98" y1="269.05" x2="382.98" y2="449.99"/><line class="cls-9" x1="391.21" y1="269.05" x2="391.21" y2="449.99"/><path class="cls-10" d="M398.91,265.13c0,2.16-2.12,3.92-4.7,3.92H371.75c-2.58,0-4.7-1.76-4.7-3.92s2.12-3.91,4.7-3.91h22.46C396.79,261.22,398.91,263,398.91,265.13Z"/><path class="cls-9" d="M398.91,265.13c0,2.16-2.12,3.92-4.7,3.92H371.75c-2.58,0-4.7-1.76-4.7-3.92s2.12-3.91,4.7-3.91h22.46C396.79,261.22,398.91,263,398.91,265.13Z"/><rect class="cls-10" x="363.07" y="449.99" width="39.83" height="9.79" rx="4.7"/><rect class="cls-9" x="363.07" y="449.99" width="39.83" height="9.79" rx="4.7"/><path class="cls-10" d="M398.91,446.07c0,2.16-2.12,3.92-4.7,3.92H371.75c-2.58,0-4.7-1.76-4.7-3.92s2.12-3.91,4.7-3.91h22.46C396.79,442.16,398.91,443.92,398.91,446.07Z"/><path class="cls-9" d="M398.91,446.07c0,2.16-2.12,3.92-4.7,3.92H371.75c-2.58,0-4.7-1.76-4.7-3.92s2.12-3.91,4.7-3.91h22.46C396.79,442.16,398.91,443.92,398.91,446.07Z"/><path class="cls-6" d="M310.35,343.31c-.44-17.68-1.34-42.12-2-58.06-.37-9.66-.64-16.2-.64-16.2H283.47s-.27,6.54-.65,16.2c-.61,15.94-1.51,40.38-2,58.06-.16,6.62-.26,12.29-.26,16.21h0c0,14.46,1.39,52.68,2.23,74.54.37,9.51.64,15.93.64,15.93h24.28s.26-6.42.63-15.93c.85-21.86,2.24-60.08,2.24-74.54h0C310.62,355.6,310.52,349.93,310.35,343.31Z"/><path class="cls-7" d="M295.61,269.05H283.47s-.27,6.54-.65,16.2h25.57c-.37-9.66-.64-16.2-.64-16.2Z"/><path class="cls-7" d="M310.62,359.52c0-3.92-.1-9.59-.27-16.21H280.86c-.16,6.62-.26,12.29-.26,16.21h30Z"/><path class="cls-7" d="M283.47,450h24.28s.26-6.42.63-15.93H282.83C283.2,443.57,283.47,450,283.47,450Z"/><path class="cls-8" d="M308.64,450.92H282.58l0-.89c0-.7-2.87-70-2.87-90.51s2.84-89.81,2.87-90.51l0-.89h26.06l0,.89c0,.7,2.87,70,2.87,90.51s-2.84,89.81-2.87,90.51Zm-24.28-1.85h22.5c.33-8.2,2.83-70.32,2.83-89.55s-2.5-81.35-2.83-89.55h-22.5c-.34,8.2-2.84,70.32-2.84,89.55S284,440.87,284.36,449.07Z"/><line class="cls-9" x1="287.38" y1="269.05" x2="287.38" y2="449.99"/><line class="cls-9" x1="295.61" y1="269.05" x2="295.61" y2="449.99"/><line class="cls-9" x1="303.83" y1="269.05" x2="303.83" y2="449.99"/><path class="cls-10" d="M311.53,265.13c0,2.16-2.11,3.92-4.69,3.92H284.38c-2.58,0-4.7-1.76-4.7-3.92s2.12-3.91,4.7-3.91h22.46C309.42,261.22,311.53,263,311.53,265.13Z"/><path class="cls-9" d="M311.53,265.13c0,2.16-2.11,3.92-4.69,3.92H284.38c-2.58,0-4.7-1.76-4.7-3.92s2.12-3.91,4.7-3.91h22.46C309.42,261.22,311.53,263,311.53,265.13Z"/><rect class="cls-10" x="275.7" y="449.99" width="39.83" height="9.79" rx="4.7"/><rect class="cls-9" x="275.7" y="449.99" width="39.83" height="9.79" rx="4.7"/><path class="cls-10" d="M311.53,446.07c0,2.16-2.11,3.92-4.69,3.92H284.38c-2.58,0-4.7-1.76-4.7-3.92s2.12-3.91,4.7-3.91h22.46C309.42,442.16,311.53,443.92,311.53,446.07Z"/><path class="cls-9" d="M311.53,446.07c0,2.16-2.11,3.92-4.69,3.92H284.38c-2.58,0-4.7-1.76-4.7-3.92s2.12-3.91,4.7-3.91h22.46C309.42,442.16,311.53,443.92,311.53,446.07Z"/><path class="cls-6" d="M223,343.31c-.44-17.68-1.34-42.12-2-58.06-.37-9.66-.64-16.2-.64-16.2H196.09s-.26,6.54-.64,16.2c-.61,15.94-1.51,40.38-2,58.06-.16,6.62-.27,12.29-.27,16.21h0c0,14.46,1.4,52.68,2.24,74.54.37,9.51.63,15.93.63,15.93h24.29s.26-6.42.63-15.93c.85-21.86,2.24-60.08,2.24-74.54h0C223.25,355.6,223.15,349.93,223,343.31Z"/><path class="cls-7" d="M208.24,269.05H196.09s-.26,6.54-.64,16.2H221c-.37-9.66-.64-16.2-.64-16.2Z"/><path class="cls-7" d="M223.25,359.52c0-3.92-.1-9.59-.27-16.21H193.49c-.16,6.62-.27,12.29-.27,16.21h30Z"/><path class="cls-7" d="M196.09,450h24.29s.26-6.42.63-15.93H195.46C195.83,443.57,196.09,450,196.09,450Z"/><path class="cls-8" d="M221.27,450.92H195.2l0-.89c0-.7-2.88-70-2.88-90.51s2.85-89.81,2.88-90.51l0-.89h26.07l0,.89c0,.7,2.88,70,2.88,90.51s-2.85,89.81-2.88,90.51ZM197,449.07h22.51c.33-8.2,2.83-70.32,2.83-89.55s-2.5-81.35-2.83-89.55H197c-.33,8.2-2.83,70.32-2.83,89.55S196.65,440.87,197,449.07Z"/><line class="cls-9" x1="200.01" y1="269.05" x2="200.01" y2="449.99"/><line class="cls-9" x1="208.24" y1="269.05" x2="208.24" y2="449.99"/><line class="cls-9" x1="216.46" y1="269.05" x2="216.46" y2="449.99"/><path class="cls-10" d="M224.16,265.13c0,2.16-2.11,3.92-4.7,3.92H197c-2.59,0-4.7-1.76-4.7-3.92s2.11-3.91,4.7-3.91h22.45C222.05,261.22,224.16,263,224.16,265.13Z"/><path class="cls-9" d="M224.16,265.13c0,2.16-2.11,3.92-4.7,3.92H197c-2.59,0-4.7-1.76-4.7-3.92s2.11-3.91,4.7-3.91h22.45C222.05,261.22,224.16,263,224.16,265.13Z"/><rect class="cls-10" x="188.32" y="449.99" width="39.83" height="9.79" rx="4.7"/><rect class="cls-9" x="188.32" y="449.99" width="39.83" height="9.79" rx="4.7"/><path class="cls-10" d="M224.16,446.07c0,2.16-2.11,3.92-4.7,3.92H197c-2.59,0-4.7-1.76-4.7-3.92s2.11-3.91,4.7-3.91h22.45C222.05,442.16,224.16,443.92,224.16,446.07Z"/><path class="cls-9" d="M224.16,446.07c0,2.16-2.11,3.92-4.7,3.92H197c-2.59,0-4.7-1.76-4.7-3.92s2.11-3.91,4.7-3.91h22.45C222.05,442.16,224.16,443.92,224.16,446.07Z"/><rect class="cls-4" x="99.77" y="257.93" width="479.53" height="4.27"/><rect class="cls-4" x="92.01" y="217.98" width="495.05" height="4.27"/><polygon class="cls-3" points="337.32 207.82 87.57 207.82 92.01 217.98 337.32 217.98 582.63 217.98 587.06 207.82 337.32 207.82"/><rect class="cls-5" x="272.28" y="170.55" width="133.66" height="37.27"/><rect class="cls-6" x="281.83" y="177.79" width="114.56" height="20.37"/><rect class="cls-7" x="287.11" y="181.6" width="10.22" height="13"/><rect class="cls-7" x="310.28" y="181.6" width="10.22" height="13"/><rect class="cls-7" x="333.46" y="181.6" width="10.22" height="13"/><rect class="cls-7" x="356.63" y="181.6" width="10.22" height="13"/><rect class="cls-7" x="379.8" y="181.6" width="10.22" height="13"/><path class="cls-8" d="M397.32,199.09H280.91V176.86H397.32Zm-114.56-1.86h112.7V178.72H282.76Z"/><rect class="cls-11" x="272.28" y="170.55" width="4.2" height="6.66"/><rect class="cls-11" x="276.48" y="170.55" width="4.2" height="6.66"/><rect class="cls-11" x="293.13" y="170.55" width="4.2" height="6.66"/><rect class="cls-11" x="297.33" y="170.55" width="4.2" height="6.66"/><rect class="cls-11" x="313.98" y="170.55" width="4.2" height="6.66"/><rect class="cls-11" x="318.17" y="170.55" width="4.2" height="6.66"/><rect class="cls-11" x="334.82" y="170.55" width="4.2" height="6.66"/><rect class="cls-11" x="339.02" y="170.55" width="4.2" height="6.66"/><rect class="cls-11" x="355.67" y="170.55" width="4.2" height="6.66"/><rect class="cls-11" x="359.87" y="170.55" width="4.2" height="6.66"/><rect class="cls-11" x="376.52" y="170.55" width="4.2" height="6.66"/><rect class="cls-11" x="380.71" y="170.55" width="4.2" height="6.66"/><rect class="cls-11" x="397.36" y="170.55" width="4.2" height="6.66"/><rect class="cls-11" x="401.56" y="170.55" width="4.2" height="6.66"/><rect class="cls-4" x="265.22" y="164.54" width="147.79" height="6.01"/><rect class="cls-3" x="274.38" y="159.83" width="130.12" height="4.72"/><line class="cls-11" x1="375.91" y1="148.69" x2="366.74" y2="159.83"/><path class="cls-11" d="M401.36,142.28s-.62,14.53-2.63,14.69-3.24-1.09-2.47-2.79,1.24-7.73,1.24-7.73-3.1,6.49-6.65,7-2,6.42-2,6.42h-4.49v-4.72l-3.4,2v2.71h-3.71s-.62-5-1.86-6.73-1.23-13.92,1.4-15.15,3.71-6,5.25-6.19,3.4-3.86,4.64-7.73,3.79-17.9,10.75-19.17l2.09-1.74v2.43a2.94,2.94,0,0,1,1.85.23l2-.34-.69,2.08s.46,4.18,0,5.34.69,5.68.69,5.68a2.42,2.42,0,0,1-1.85,1.39c-1.51.35-1.86,1.51-1.63,3.37s2.44,7.53,2,10.2S401.52,139.57,401.36,142.28Z"/><path class="cls-11" d="M385.08,128.1a31.27,31.27,0,0,1-18.34-.54"/><polygon class="cls-12" points="334.87 111.58 336.21 110.65 336.21 92.64 334.87 92.64 334.87 111.58"/><path class="cls-11" d="M367.89,128.36c-1.85-2.78-4.29-12.68-4.23-15.15s.25-8.59-.79-10.09l.69-4.18L361,101.38l-1.62-.24-2.21-2.78v3.94s-1.5,1.4-1.62,4.76.69,7.54.58,10.09-.59,6.49-.59,6.49-2.56,5.32-4,5-.9-9.45-3.15-10.35-4,1.23-4,1.23l-.82-3s1.16-2,.58-3.24S340,110.06,339.8,110h0c-.18.09-3.83,2-4.39,3.24s.58,3.24.58,3.24l-.81,3a8.27,8.27,0,0,0-2.32-2.44c-1.63-1.16.11-4.29.81-5.1s3.94-2.67,3.48-5,.23-3.94-5.8,2.21-3.48,10.2-3.48,10.2c-1.51.35-3.82,4.29-3.82,4.29s-.47-3.94-.59-6.49.7-6.73.58-10.09-1.62-4.76-1.62-4.76V98.36l-2.21,2.78-1.62.24L316,98.94l.7,4.18c-1.05,1.5-.86,7.61-.8,10.09s-2.37,12.37-4.23,15.15-1.08,15.77,0,19.64,3.09,11.83,3.09,11.83h50s2-8,3.09-11.83S369.75,131.14,367.89,128.36Z"/><polygon class="cls-12" points="334.87 110.87 334.87 136.4 336.21 136.4 336.21 109.59 334.87 110.87"/><polygon class="cls-11" points="342.59 82.82 337.52 82.82 337.52 77.75 333.56 77.75 333.56 82.82 328.5 82.82 328.5 86.77 333.56 86.77 333.56 91.84 337.52 91.84 337.52 86.77 342.59 86.77 342.59 82.82"/><path class="cls-11" d="M335.54,75.86a8.93,8.93,0,1,0,8.93,8.93A8.93,8.93,0,0,0,335.54,75.86Zm0,15.31a6.38,6.38,0,1,1,6.38-6.38A6.38,6.38,0,0,1,335.54,91.17Z"/><path class="cls-11" d="M339.82,67.6c.21,1.71-1.8,1.78-3.14,1.64a4.34,4.34,0,0,1,0-2.42c.42-1.22,1.75-2.84.53-4.12s-1.68-1.32-1.68-1.32-.46,0-1.68,1.32.12,2.9.53,4.12a4.34,4.34,0,0,1,0,2.42c-1.34.14-3.35.07-3.14-1.64.31-2.54-11.6-8.51-11.6-8.51s2.09,2.62,2.25,4.71,2.39,4,2.55,5.41,3.4,4.26,4.48,5.34,4.49,1.57,4.49,1.57l2.11-.26,2.11.26s3.41-.49,4.49-1.57,4.33-3.94,4.48-5.34,2.4-3.32,2.56-5.41,2.24-4.71,2.24-4.71S339.51,65.06,339.82,67.6Z"/><line class="cls-11" x1="302.98" y1="148.69" x2="312.15" y2="159.83"/><path class="cls-11" d="M277.53,142.28s.62,14.53,2.63,14.69,3.24-1.09,2.47-2.79-1.24-7.73-1.24-7.73,3.1,6.49,6.65,7,2,6.42,2,6.42h4.49v-4.72l3.4,2v2.71h3.71s.62-5,1.85-6.73,1.24-13.92-1.39-15.15-3.71-6-5.25-6.19-3.41-3.86-4.64-7.73-3.79-17.9-10.75-19.17l-2.09-1.74v2.43a2.94,2.94,0,0,0-1.85.23l-2-.34.69,2.08s-.46,4.18,0,5.34-.69,5.68-.69,5.68a2.42,2.42,0,0,0,1.85,1.39c1.51.35,1.86,1.51,1.63,3.37s-2.44,7.53-2,10.2S277.37,139.57,277.53,142.28Z"/><path class="cls-11" d="M293.8,128.1a31.31,31.31,0,0,0,18.35-.54"/><rect class="cls-5" x="111.59" y="228.77" width="10.31" height="17.63"/><line class="cls-5" x1="114.34" y1="231.78" x2="114.34" y2="243.13"/><line class="cls-5" x1="116.75" y1="231.78" x2="116.75" y2="243.13"/><line class="cls-5" x1="119.17" y1="231.78" x2="119.17" y2="243.13"/><rect class="cls-5" x="139.31" y="228.77" width="10.31" height="17.63"/><line class="cls-5" x1="142.06" y1="231.78" x2="142.06" y2="243.13"/><line class="cls-5" x1="144.47" y1="231.78" x2="144.47" y2="243.13"/><line class="cls-5" x1="146.89" y1="231.78" x2="146.89" y2="243.13"/><rect class="cls-5" x="167.03" y="228.77" width="10.31" height="17.63"/><line class="cls-5" x1="169.77" y1="231.78" x2="169.77" y2="243.13"/><line class="cls-5" x1="172.19" y1="231.78" x2="172.19" y2="243.13"/><line class="cls-5" x1="174.61" y1="231.78" x2="174.61" y2="243.13"/><rect class="cls-5" x="194.75" y="228.77" width="10.31" height="17.63"/><line class="cls-5" x1="197.49" y1="231.78" x2="197.49" y2="243.13"/><line class="cls-5" x1="199.91" y1="231.78" x2="199.91" y2="243.13"/><line class="cls-5" x1="202.33" y1="231.78" x2="202.33" y2="243.13"/><rect class="cls-5" x="231.67" y="228.77" width="10.31" height="17.63"/><line class="cls-5" x1="234.41" y1="231.78" x2="234.41" y2="243.13"/><line class="cls-5" x1="236.83" y1="231.78" x2="236.83" y2="243.13"/><line class="cls-5" x1="239.24" y1="231.78" x2="239.24" y2="243.13"/><rect class="cls-5" x="259.39" y="228.77" width="10.31" height="17.63"/><line class="cls-5" x1="262.13" y1="231.78" x2="262.13" y2="243.13"/><line class="cls-5" x1="264.55" y1="231.78" x2="264.55" y2="243.13"/><line class="cls-5" x1="266.96" y1="231.78" x2="266.96" y2="243.13"/><rect class="cls-5" x="287.11" y="228.77" width="10.31" height="17.63"/><line class="cls-5" x1="289.85" y1="231.78" x2="289.85" y2="243.13"/><line class="cls-5" x1="292.27" y1="231.78" x2="292.27" y2="243.13"/><line class="cls-5" x1="294.68" y1="231.78" x2="294.68" y2="243.13"/><rect class="cls-5" x="314.83" y="228.77" width="10.31" height="17.63"/><line class="cls-5" x1="317.57" y1="231.78" x2="317.57" y2="243.13"/><line class="cls-5" x1="319.99" y1="231.78" x2="319.99" y2="243.13"/><line class="cls-5" x1="322.4" y1="231.78" x2="322.4" y2="243.13"/><rect class="cls-5" x="351.75" y="228.77" width="10.31" height="17.63"/><line class="cls-5" x1="354.49" y1="231.78" x2="354.49" y2="243.13"/><line class="cls-5" x1="356.9" y1="231.78" x2="356.9" y2="243.13"/><line class="cls-5" x1="359.32" y1="231.78" x2="359.32" y2="243.13"/><rect class="cls-5" x="379.47" y="228.77" width="10.31" height="17.63"/><line class="cls-5" x1="382.21" y1="231.78" x2="382.21" y2="243.13"/><line class="cls-5" x1="384.62" y1="231.78" x2="384.62" y2="243.13"/><line class="cls-5" x1="387.04" y1="231.78" x2="387.04" y2="243.13"/><rect class="cls-5" x="407.19" y="228.77" width="10.31" height="17.63"/><line class="cls-5" x1="409.93" y1="231.78" x2="409.93" y2="243.13"/><line class="cls-5" x1="412.34" y1="231.78" x2="412.34" y2="243.13"/><line class="cls-5" x1="414.76" y1="231.78" x2="414.76" y2="243.13"/><rect class="cls-5" x="434.91" y="228.77" width="10.31" height="17.63"/><line class="cls-5" x1="437.65" y1="231.78" x2="437.65" y2="243.13"/><line class="cls-5" x1="440.07" y1="231.78" x2="440.07" y2="243.13"/><line class="cls-5" x1="442.48" y1="231.78" x2="442.48" y2="243.13"/><rect class="cls-5" x="471.83" y="228.77" width="10.31" height="17.63"/><line class="cls-5" x1="474.57" y1="231.78" x2="474.57" y2="243.13"/><line class="cls-5" x1="476.98" y1="231.78" x2="476.98" y2="243.13"/><line class="cls-5" x1="479.4" y1="231.78" x2="479.4" y2="243.13"/><rect class="cls-5" x="499.54" y="228.77" width="10.31" height="17.63"/><line class="cls-5" x1="502.29" y1="231.78" x2="502.29" y2="243.13"/><line class="cls-5" x1="504.7" y1="231.78" x2="504.7" y2="243.13"/><line class="cls-5" x1="507.12" y1="231.78" x2="507.12" y2="243.13"/><rect class="cls-5" x="527.26" y="228.77" width="10.31" height="17.63"/><line class="cls-5" x1="530.01" y1="231.78" x2="530.01" y2="243.13"/><line class="cls-5" x1="532.42" y1="231.78" x2="532.42" y2="243.13"/><line class="cls-5" x1="534.84" y1="231.78" x2="534.84" y2="243.13"/><rect class="cls-5" x="554.99" y="228.77" width="10.31" height="17.63"/><line class="cls-5" x1="557.73" y1="231.78" x2="557.73" y2="243.13"/><line class="cls-5" x1="560.14" y1="231.78" x2="560.14" y2="243.13"/><line class="cls-5" x1="562.56" y1="231.78" x2="562.56" y2="243.13"/><path class="cls-4" d="M68.39,431.49c-.48-12.48-5.62-190.22-5.62-190.22H53.43S48.29,419,47.81,431.49s-7.38,29.42-7.38,29.42H75.77S68.87,444,68.39,431.49Z"/><rect class="cls-4" x="53.6" y="228.52" width="9" height="7.75"/><polygon class="cls-5" points="65.27 200.02 50.93 200.02 52.1 170.94 64.1 170.94 65.27 200.02"/><path class="cls-10" d="M66.6,238.36c0,1.6-2.7,2.91-6,2.91h-5c-3.3,0-6-1.31-6-2.91s2.7-2.92,6-2.92h5C63.9,235.44,66.6,236.75,66.6,238.36Z"/><path class="cls-5" d="M66.6,238.36c0,1.6-2.7,2.91-6,2.91h-5c-3.3,0-6-1.31-6-2.91s2.7-2.92,6-2.92h5C63.9,235.44,66.6,236.75,66.6,238.36Z"/><polygon class="cls-11" points="60.18 170.94 55.68 170.94 57.93 61.52 60.18 170.94"/><rect class="cls-3" x="53.77" y="154.27" width="8.67" height="3"/><rect class="cls-3" x="53.77" y="120.94" width="8.67" height="3"/><rect class="cls-3" x="53.77" y="96.61" width="8.67" height="3"/><line class="cls-9" x1="52.05" y1="178.4" x2="63.81" y2="178.4"/><line class="cls-9" x1="52.05" y1="185.48" x2="63.81" y2="185.48"/><path class="cls-11" d="M75.68,212.69a17.58,17.58,0,1,0-34.8,3.58H75.32A17.53,17.53,0,0,0,75.68,212.69Z"/><path class="cls-4" d="M58.1,230.27A17.52,17.52,0,0,0,72.35,223H43.85A17.53,17.53,0,0,0,58.1,230.27Z"/><path class="cls-13" d="M40.88,216.27a17.45,17.45,0,0,0,3,6.69h28.5a17.45,17.45,0,0,0,3-6.69Z"/><line class="cls-9" x1="50.89" y1="328.8" x2="65.31" y2="328.8"/><rect class="cls-3" x="151.25" y="352.07" width="471.17" height="6.96"/><rect class="cls-5" x="151.25" y="345.11" width="471.17" height="6.96"/><rect class="cls-13" x="151.25" y="359.03" width="471.17" height="100.3"/><path class="cls-4" d="M385.4,294.78c-40.3,0-42.26,27.49-42.26,27.49h84.53S425.71,294.78,385.4,294.78Z"/><rect class="cls-3" x="316.34" y="322.27" width="138.14" height="5"/><rect class="cls-4" x="320.08" y="327.27" width="130.64" height="14.63"/><rect class="cls-14" x="224.3" y="359.03" width="325.06" height="100.3"/><rect class="cls-15" x="333.94" y="360.46" width="103.94" height="98.87"/><path class="cls-8" d="M549.36,460.76H224.3a1.42,1.42,0,0,1-1.42-1.42V359a1.42,1.42,0,0,1,1.42-1.43H549.36a1.43,1.43,0,0,1,1.43,1.43V459.34A1.43,1.43,0,0,1,549.36,460.76Zm-323.63-2.85h322.2V360.46H225.73Z"/><rect class="cls-11" x="330.08" y="355.11" width="10.35" height="98.16"/><line class="cls-9" x1="335.25" y1="359.03" x2="335.25" y2="446.37"/><rect class="cls-4" x="326.15" y="349.04" width="18.09" height="6.07"/><rect class="cls-4" x="326.15" y="453.27" width="18.09" height="6.07"/><rect class="cls-11" x="164.45" y="355.11" width="10.35" height="98.16"/><line class="cls-9" x1="169.63" y1="359.03" x2="169.63" y2="446.37"/><rect class="cls-4" x="160.53" y="349.04" width="18.09" height="6.07"/><rect class="cls-4" x="160.53" y="453.27" width="18.09" height="6.07"/><rect class="cls-11" x="204.37" y="355.11" width="10.35" height="98.16"/><line class="cls-9" x1="209.55" y1="359.03" x2="209.55" y2="446.37"/><rect class="cls-4" x="200.45" y="349.04" width="18.09" height="6.07"/><rect class="cls-4" x="200.45" y="453.27" width="18.09" height="6.07"/><rect class="cls-11" x="432.7" y="355.11" width="10.35" height="98.16"/><line class="cls-9" x1="437.87" y1="359.03" x2="437.87" y2="446.37"/><rect class="cls-4" x="428.77" y="349.04" width="18.08" height="6.07"/><rect class="cls-4" x="428.77" y="453.27" width="18.08" height="6.07"/><rect class="cls-11" x="407.04" y="355.11" width="10.35" height="98.16"/><line class="cls-9" x1="412.22" y1="359.03" x2="412.22" y2="446.37"/><rect class="cls-4" x="403.12" y="349.04" width="18.08" height="6.07"/><rect class="cls-4" x="403.12" y="453.27" width="18.08" height="6.07"/><rect class="cls-11" x="381.39" y="355.11" width="10.35" height="98.16"/><line class="cls-9" x1="386.57" y1="359.03" x2="386.57" y2="446.37"/><rect class="cls-4" x="377.46" y="349.04" width="18.09" height="6.07"/><rect class="cls-4" x="377.46" y="453.27" width="18.09" height="6.07"/><rect class="cls-11" x="355.73" y="355.11" width="10.35" height="98.16"/><line class="cls-9" x1="360.91" y1="359.03" x2="360.91" y2="446.37"/><rect class="cls-4" x="351.81" y="349.04" width="18.08" height="6.07"/><rect class="cls-4" x="351.81" y="453.27" width="18.08" height="6.07"/><rect class="cls-5" x="320.08" y="341.9" width="130.64" height="7.14"/><polygon class="cls-13" points="386.83 312.63 314.73 341.9 454.65 341.9 386.83 312.63"/><polygon class="cls-5" points="385.86 319.28 346.52 335.25 422.86 335.25 385.86 319.28"/><rect class="cls-5" x="320.82" y="315.49" width="18.38" height="6.78"/><rect class="cls-13" x="320.82" y="310.85" width="18.38" height="4.46"/><rect class="cls-11" x="326.09" y="295.8" width="7.85" height="15.04"/><path class="cls-3" d="M330,283.08a3.92,3.92,0,0,0-3.92,3.93v8.79h7.85V287A3.93,3.93,0,0,0,330,283.08Z"/><rect class="cls-5" x="432.03" y="315.49" width="18.38" height="6.78"/><rect class="cls-13" x="432.03" y="310.85" width="18.38" height="4.46"/><rect class="cls-11" x="437.3" y="295.8" width="7.85" height="15.04"/><path class="cls-3" d="M441.23,283.08A3.93,3.93,0,0,0,437.3,287v8.79h7.85V287A3.92,3.92,0,0,0,441.23,283.08Z"/><path class="cls-4" d="M323.06,394a4.76,4.76,0,0,0-9.52,0v21.41h9.52V394Z"/><line class="cls-4" x1="313.54" y1="398.06" x2="323.06" y2="398.06"/><line class="cls-4" x1="313.54" y1="407.22" x2="323.06" y2="407.22"/><path class="cls-4" d="M303.19,394a4.76,4.76,0,0,0-9.52,0v21.41h9.52V394Z"/><line class="cls-4" x1="293.67" y1="398.06" x2="303.19" y2="398.06"/><line class="cls-4" x1="293.67" y1="407.22" x2="303.19" y2="407.22"/><path class="cls-4" d="M283.32,394a4.76,4.76,0,0,0-9.52,0v21.41h9.52V394Z"/><line class="cls-4" x1="273.8" y1="398.06" x2="283.32" y2="398.06"/><line class="cls-4" x1="273.8" y1="407.22" x2="283.32" y2="407.22"/><path class="cls-4" d="M263.45,394a4.76,4.76,0,0,0-9.52,0v21.41h9.52V394Z"/><line class="cls-4" x1="253.93" y1="398.06" x2="263.45" y2="398.06"/><line class="cls-4" x1="253.93" y1="407.22" x2="263.45" y2="407.22"/><path class="cls-4" d="M243.58,394a4.76,4.76,0,0,0-9.52,0v21.41h9.52V394Z"/><line class="cls-4" x1="234.06" y1="398.06" x2="243.58" y2="398.06"/><line class="cls-4" x1="234.06" y1="407.22" x2="243.58" y2="407.22"/><rect class="cls-4" x="314.13" y="366.65" width="8.33" height="15.47"/><line class="cls-4" x1="314.13" y1="374.38" x2="322.46" y2="374.38"/><rect class="cls-4" x="294.26" y="366.65" width="8.33" height="15.47"/><line class="cls-4" x1="294.26" y1="374.38" x2="302.59" y2="374.38"/><rect class="cls-4" x="274.39" y="366.65" width="8.33" height="15.47"/><line class="cls-4" x1="274.39" y1="374.38" x2="282.72" y2="374.38"/><rect class="cls-4" x="254.52" y="366.65" width="8.33" height="15.47"/><line class="cls-4" x1="254.52" y1="374.38" x2="262.85" y2="374.38"/><rect class="cls-4" x="234.65" y="366.65" width="8.33" height="15.47"/><line class="cls-4" x1="234.65" y1="374.38" x2="242.98" y2="374.38"/><rect class="cls-4" x="314.13" y="424.35" width="8.33" height="15.47"/><line class="cls-4" x1="314.13" y1="432.09" x2="322.46" y2="432.09"/><rect class="cls-4" x="294.26" y="424.35" width="8.33" height="15.47"/><line class="cls-4" x1="294.26" y1="432.09" x2="302.59" y2="432.09"/><rect class="cls-4" x="274.39" y="424.35" width="8.33" height="15.47"/><line class="cls-4" x1="274.39" y1="432.09" x2="282.72" y2="432.09"/><rect class="cls-4" x="254.52" y="424.35" width="8.33" height="15.47"/><line class="cls-4" x1="254.52" y1="432.09" x2="262.85" y2="432.09"/><rect class="cls-4" x="234.65" y="424.35" width="8.33" height="15.47"/><line class="cls-4" x1="234.65" y1="432.09" x2="242.98" y2="432.09"/><path class="cls-4" d="M539.41,394a4.76,4.76,0,0,0-9.52,0v21.41h9.52V394Z"/><line class="cls-4" x1="529.89" y1="398.06" x2="539.41" y2="398.06"/><line class="cls-4" x1="529.89" y1="407.22" x2="539.41" y2="407.22"/><path class="cls-4" d="M519.54,394a4.76,4.76,0,1,0-9.51,0v21.41h9.51V394Z"/><line class="cls-4" x1="510.03" y1="398.06" x2="519.54" y2="398.06"/><line class="cls-4" x1="510.03" y1="407.22" x2="519.54" y2="407.22"/><path class="cls-4" d="M499.68,394a4.76,4.76,0,0,0-9.52,0v21.41h9.52V394Z"/><line class="cls-4" x1="490.16" y1="398.06" x2="499.68" y2="398.06"/><line class="cls-4" x1="490.16" y1="407.22" x2="499.68" y2="407.22"/><path class="cls-4" d="M479.81,394a4.76,4.76,0,0,0-9.52,0v21.41h9.52V394Z"/><line class="cls-4" x1="470.29" y1="398.06" x2="479.81" y2="398.06"/><line class="cls-4" x1="470.29" y1="407.22" x2="479.81" y2="407.22"/><path class="cls-4" d="M459.94,394a4.76,4.76,0,0,0-9.52,0v21.41h9.52V394Z"/><line class="cls-4" x1="450.42" y1="398.06" x2="459.94" y2="398.06"/><line class="cls-4" x1="450.42" y1="407.22" x2="459.94" y2="407.22"/><rect class="cls-4" x="530.49" y="366.65" width="8.33" height="15.47"/><line class="cls-4" x1="530.49" y1="374.38" x2="538.82" y2="374.38"/><rect class="cls-4" x="510.62" y="366.65" width="8.33" height="15.47"/><line class="cls-4" x1="510.62" y1="374.38" x2="518.95" y2="374.38"/><rect class="cls-4" x="490.75" y="366.65" width="8.33" height="15.47"/><line class="cls-4" x1="490.75" y1="374.38" x2="499.08" y2="374.38"/><rect class="cls-4" x="470.88" y="366.65" width="8.33" height="15.47"/><line class="cls-4" x1="470.88" y1="374.38" x2="479.21" y2="374.38"/><rect class="cls-4" x="451.01" y="366.65" width="8.33" height="15.47"/><line class="cls-4" x1="451.01" y1="374.38" x2="459.34" y2="374.38"/><rect class="cls-4" x="530.49" y="424.35" width="8.33" height="15.47"/><line class="cls-4" x1="530.49" y1="432.09" x2="538.82" y2="432.09"/><rect class="cls-4" x="510.62" y="424.35" width="8.33" height="15.47"/><line class="cls-4" x1="510.62" y1="432.09" x2="518.95" y2="432.09"/><rect class="cls-4" x="490.75" y="424.35" width="8.33" height="15.47"/><line class="cls-4" x1="490.75" y1="432.09" x2="499.08" y2="432.09"/><rect class="cls-4" x="470.88" y="424.35" width="8.33" height="15.47"/><line class="cls-4" x1="470.88" y1="432.09" x2="479.21" y2="432.09"/><rect class="cls-4" x="451.01" y="424.35" width="8.33" height="15.47"/><line class="cls-4" x1="451.01" y1="432.09" x2="459.34" y2="432.09"/><path class="cls-4" d="M189.71,364.74c-12.14,0-10,17.38-10,17.38h20S201.84,364.74,189.71,364.74Z"/><line class="cls-9" x1="183.25" y1="367.17" x2="183.25" y2="382.12"/><line class="cls-9" x1="196.17" y1="367.17" x2="196.17" y2="382.12"/><rect class="cls-4" x="182.48" y="399.25" width="14.46" height="25.1"/><rect class="cls-11" x="560.96" y="355.11" width="10.35" height="98.16"/><line class="cls-9" x1="566.14" y1="359.03" x2="566.14" y2="446.37"/><rect class="cls-4" x="557.03" y="349.04" width="18.09" height="6.07"/><rect class="cls-4" x="557.03" y="453.27" width="18.09" height="6.07"/><rect class="cls-11" x="600.88" y="355.11" width="10.35" height="98.16"/><line class="cls-9" x1="606.06" y1="359.03" x2="606.06" y2="446.37"/><rect class="cls-4" x="596.96" y="349.04" width="18.08" height="6.07"/><rect class="cls-4" x="596.96" y="453.27" width="18.08" height="6.07"/><path class="cls-4" d="M586.21,364.74c-12.13,0-10,17.38-10,17.38h20S598.35,364.74,586.21,364.74Z"/><line class="cls-9" x1="579.76" y1="367.17" x2="579.76" y2="382.12"/><line class="cls-9" x1="592.67" y1="367.17" x2="592.67" y2="382.12"/><rect class="cls-4" x="578.99" y="399.25" width="14.46" height="25.1"/><rect class="cls-16" x="169.57" y="308.52" width="52.35" height="36.59"/><path class="cls-15" d="M186.49,320.3a4.16,4.16,0,1,0-8.32,0v14.82h8.33V320.3Z"/><path class="cls-15" d="M199.85,320.3a4.17,4.17,0,0,0-8.33,0v14.82h8.33V320.3Z"/><path class="cls-15" d="M213.21,320.3a4.17,4.17,0,0,0-8.33,0v14.82h8.33V320.3Z"/><path class="cls-8" d="M221.92,346.54H169.57a1.43,1.43,0,0,1-1.43-1.43V308.52a1.43,1.43,0,0,1,1.43-1.42h52.35a1.43,1.43,0,0,1,1.43,1.42v36.59A1.43,1.43,0,0,1,221.92,346.54ZM171,343.68h49.5V310H171Z"/><polygon class="cls-5" points="227.1 301.7 164.46 301.7 166.15 308.52 225.4 308.52 227.1 301.7"/><polygon class="cls-3" points="217.1 296.8 217.1 294.07 213.3 294.07 213.3 296.8 204.14 296.8 204.14 294.07 200.33 294.07 200.33 296.8 191.17 296.8 191.17 294.07 187.36 294.07 187.36 296.8 178.2 296.8 178.2 294.07 174.39 294.07 174.39 296.8 169.57 296.8 169.57 301.7 221.92 301.7 221.92 296.8 217.1 296.8"/><rect class="cls-16" x="553.55" y="308.52" width="52.35" height="36.59"/><path class="cls-15" d="M570.47,320.3a4.16,4.16,0,0,0-8.32,0v14.82h8.33V320.3Z"/><path class="cls-15" d="M583.83,320.3a4.17,4.17,0,0,0-8.33,0v14.82h8.33V320.3Z"/><path class="cls-15" d="M597.19,320.3a4.17,4.17,0,0,0-8.33,0v14.82h8.33V320.3Z"/><path class="cls-8" d="M605.9,346.54H553.55a1.43,1.43,0,0,1-1.43-1.43V308.52a1.43,1.43,0,0,1,1.43-1.42H605.9a1.43,1.43,0,0,1,1.43,1.42v36.59A1.43,1.43,0,0,1,605.9,346.54ZM555,343.68h49.49V310H555Z"/><polygon class="cls-5" points="611.08 301.7 548.43 301.7 550.13 308.52 609.38 308.52 611.08 301.7"/><polygon class="cls-3" points="601.08 296.8 601.08 294.07 597.27 294.07 597.27 296.8 588.11 296.8 588.11 294.07 584.31 294.07 584.31 296.8 575.14 296.8 575.14 294.07 571.34 294.07 571.34 296.8 562.18 296.8 562.18 294.07 558.37 294.07 558.37 296.8 553.55 296.8 553.55 301.7 605.9 301.7 605.9 296.8 601.08 296.8"/><line class="cls-3" x1="89.48" y1="471.46" x2="61.15" y2="471.46"/><line class="cls-3" x1="51.31" y1="471.46" x2="29.27" y2="471.46"/><line class="cls-3" x1="599.19" y1="471.46" x2="627.52" y2="471.46"/><line class="cls-3" x1="637.36" y1="471.46" x2="659.4" y2="471.46"/><line class="cls-3" x1="676.65" y1="471.46" x2="698.69" y2="471.46"/><line class="cls-9" x1="1" y1="460.76" x2="687.72" y2="460.76"/><line class="cls-3" x1="102.81" y1="471.46" x2="585.91" y2="471.46"/><circle id="_Sun_" data-name="&lt;Sun&gt;" class="cls-13" cx="403.15" cy="31.88" r="23.03"/><circle class="cls-17" cx="403.15" cy="31.88" r="30.88"/><path id="_Cloud_Front_" data-name="&lt;Cloud Front&gt;" class="cls-3" d="M452.58,62.6A10.26,10.26,0,0,1,462,55a13.71,13.71,0,0,1,25.61,6.81c0,.39,0,.78-.06,1.16a6.42,6.42,0,0,1,2.48-.49,6.52,6.52,0,1,1,0,13H454.32v0c-.22,0-.45,0-.68,0a6.52,6.52,0,0,1-1.06-12.95Z"/></g></g></g></svg>